<svg xmlns="http://www.w3.org/2000/svg"
  xmlns:xlink="http://www.w3.org/1999/xlink" width="13.001953125" height="12" viewBox="0 0 13.001953125 12" fill="#B3B3B3">
  <path id="路径 1" opacity="1" d="M5.35 0.41L0.26 4.85C0 5.09 -0.07 5.43 0.07 5.73C0.21 6.03 0.54 6.22 0.9 6.22L1.36 6.22L1.36 10.73C1.36 11.43 1.98 12 2.76 12L4.95 12C5.23 12 5.49 11.79 5.49 11.54L5.49 8.54C5.49 8.41 5.58 8.3 5.72 8.3L7.26 8.3C7.41 8.3 7.52 8.41 7.52 8.54L7.52 11.54C7.52 11.79 7.75 12 8.04 12L10.22 12C11 12 11.64 11.43 11.64 10.73L11.64 6.22L12.1 6.22C12.46 6.22 12.79 6.03 12.93 5.73C13.07 5.43 13 5.09 12.75 4.86L7.46 0.43C7.19 0.16 6.8 0 6.4 0C5.99 0 5.61 0.16 5.35 0.41Z"></path>
</svg>
